<mxfile host="app.diagrams.net" modified="2023-05-23T09:00:26.898Z" agent="Mozilla/5.0 (X11; Linux x86_64) AppleWebKit/537.36 (KHTML, like Gecko) Chrome/107.0.0.0 Safari/537.36" etag="ZO3H6BOh8ShotPfaO1yX" version="21.3.2" type="github">
  <diagram name="第 1 页" id="aZbTNL1l6oBnPwSqJ7YI">
    <mxGraphModel dx="1434" dy="715" grid="1" gridSize="10" guides="1" tooltips="1" connect="1" arrows="1" fold="1" page="1" pageScale="1" pageWidth="827" pageHeight="1169" math="0" shadow="0">
      <root>
        <mxCell id="0" />
        <mxCell id="1" parent="0" />
        <mxCell id="yvf_0fMXS_HLt_D2ou71-10" style="edgeStyle=orthogonalEdgeStyle;rounded=0;orthogonalLoop=1;jettySize=auto;html=1;exitX=0.5;exitY=1;exitDx=0;exitDy=0;entryX=0.5;entryY=0;entryDx=0;entryDy=0;" edge="1" parent="1" source="yvf_0fMXS_HLt_D2ou71-1" target="yvf_0fMXS_HLt_D2ou71-2">
          <mxGeometry relative="1" as="geometry" />
        </mxCell>
        <mxCell id="yvf_0fMXS_HLt_D2ou71-1" value="sha256摘要处理" style="rounded=0;whiteSpace=wrap;html=1;fillColor=#ffe6cc;strokeColor=#d79b00;" vertex="1" parent="1">
          <mxGeometry x="190" y="150" width="120" height="60" as="geometry" />
        </mxCell>
        <mxCell id="yvf_0fMXS_HLt_D2ou71-11" style="edgeStyle=orthogonalEdgeStyle;rounded=0;orthogonalLoop=1;jettySize=auto;html=1;exitX=0.5;exitY=1;exitDx=0;exitDy=0;entryX=0.5;entryY=0;entryDx=0;entryDy=0;" edge="1" parent="1" source="yvf_0fMXS_HLt_D2ou71-2" target="yvf_0fMXS_HLt_D2ou71-3">
          <mxGeometry relative="1" as="geometry" />
        </mxCell>
        <mxCell id="yvf_0fMXS_HLt_D2ou71-2" value="contentinfo数据校验" style="rounded=0;whiteSpace=wrap;html=1;fillColor=#ffe6cc;strokeColor=#d79b00;" vertex="1" parent="1">
          <mxGeometry x="190" y="240" width="120" height="60" as="geometry" />
        </mxCell>
        <mxCell id="yvf_0fMXS_HLt_D2ou71-12" style="edgeStyle=orthogonalEdgeStyle;rounded=0;orthogonalLoop=1;jettySize=auto;html=1;exitX=0.5;exitY=1;exitDx=0;exitDy=0;entryX=0.5;entryY=0;entryDx=0;entryDy=0;" edge="1" parent="1" source="yvf_0fMXS_HLt_D2ou71-3" target="yvf_0fMXS_HLt_D2ou71-4">
          <mxGeometry relative="1" as="geometry" />
        </mxCell>
        <mxCell id="yvf_0fMXS_HLt_D2ou71-3" value="签名者信息校校验" style="rounded=0;whiteSpace=wrap;html=1;fillColor=#ffe6cc;strokeColor=#d79b00;" vertex="1" parent="1">
          <mxGeometry x="190" y="330" width="120" height="60" as="geometry" />
        </mxCell>
        <mxCell id="yvf_0fMXS_HLt_D2ou71-4" value="证书校验" style="rounded=0;whiteSpace=wrap;html=1;fillColor=#ffe6cc;strokeColor=#d79b00;" vertex="1" parent="1">
          <mxGeometry x="190" y="420" width="120" height="60" as="geometry" />
        </mxCell>
        <mxCell id="yvf_0fMXS_HLt_D2ou71-9" style="edgeStyle=orthogonalEdgeStyle;rounded=0;orthogonalLoop=1;jettySize=auto;html=1;" edge="1" parent="1" source="yvf_0fMXS_HLt_D2ou71-6" target="yvf_0fMXS_HLt_D2ou71-1">
          <mxGeometry relative="1" as="geometry" />
        </mxCell>
        <mxCell id="yvf_0fMXS_HLt_D2ou71-6" value="原始数据" style="shape=parallelogram;perimeter=parallelogramPerimeter;whiteSpace=wrap;html=1;fixedSize=1;fillColor=#ffe6cc;strokeColor=#d79b00;" vertex="1" parent="1">
          <mxGeometry x="190" y="50" width="120" height="60" as="geometry" />
        </mxCell>
        <mxCell id="yvf_0fMXS_HLt_D2ou71-7" value="" style="shape=curlyBracket;whiteSpace=wrap;html=1;rounded=1;flipH=1;labelPosition=right;verticalLabelPosition=middle;align=left;verticalAlign=middle;" vertex="1" parent="1">
          <mxGeometry x="360" y="150" width="20" height="250" as="geometry" />
        </mxCell>
        <mxCell id="yvf_0fMXS_HLt_D2ou71-8" value="PKCS7签名模块验签功能" style="text;html=1;strokeColor=none;fillColor=none;align=center;verticalAlign=middle;whiteSpace=wrap;rounded=0;" vertex="1" parent="1">
          <mxGeometry x="400" y="260" width="140" height="30" as="geometry" />
        </mxCell>
      </root>
    </mxGraphModel>
  </diagram>
</mxfile>
